<?xml version="1.0" encoding="UTF-8"?>
<!DOCTYPE svg PUBLIC "-//W3C//DTD SVG 1.1//EN" "http://www.w3.org/Graphics/SVG/1.1/DTD/svg11.dtd">
<!-- Creator: CorelDRAW 2020 (64 Bit) -->
<svg xmlns="http://www.w3.org/2000/svg" xml:space="preserve" width="12.065mm" height="12.065mm" version="1.1" style="shape-rendering:geometricPrecision; text-rendering:geometricPrecision; image-rendering:optimizeQuality; fill-rule:evenodd; clip-rule:evenodd"
viewBox="0 0 50 50"
 xmlns:xlink="http://www.w3.org/1999/xlink"
 xmlns:xodm="http://www.corel.com/coreldraw/odm/2003">
 <defs>
  <style type="text/css">
   <![CDATA[
    .fil2 {fill:#FEFEFE}
    .fil1 {fill:#201E1E}
    .fil0 {fill:#174BC9}
   ]]>
  </style>
 </defs>
 <g id="__x0023_Layer_x0020_1">
  <metadata id="CorelCorpID_0Corel-Layer"/>
  <rect class="fil0" width="50" height="50" rx="11.04" ry="11.04"/>
  <path class="fil1" d="M16.9 16.67c-0.07,-0.07 -0.13,-0.14 -0.18,-0.22 -0.14,-0.21 -0.23,-0.43 -0.28,-0.68l-0.01 -0.03 -0 -0.03c-0.04,-0.42 -0.06,-0.86 -0.07,-1.28 -0.02,-0.53 -0.02,-1.06 -0.02,-1.59 0,-0.54 0.01,-1.08 0.02,-1.62 0.01,-0.46 0.06,-0.96 0.19,-1.4 0.1,-0.44 0.37,-0.8 0.72,-1.08 0.29,-0.22 0.61,-0.41 0.97,-0.55 2.09,-0.7 4.26,-1.16 6.45,-1.41 2.14,-0.25 4.29,-0.3 6.44,-0.15 2.25,0.16 4.47,0.79 6.15,2.36 1.49,1.39 2.45,3.08 2.86,5.08 0.43,2.11 0.25,4.24 -0.32,6.3 -0.63,2.31 -1.77,4.38 -3.29,6.22 -1.69,2.04 -3.8,3.62 -6.13,4.85 -2.58,1.37 -5.44,2.02 -8.34,2.21l-1.3 6.84c-0.1,0.44 -0.35,0.81 -0.71,1.08 -0.35,0.26 -0.75,0.41 -1.22,0.41 -1.02,-0.06 -2.04,-0.13 -3.05,-0.19 -1.02,-0.06 -2.04,-0.13 -3.07,-0.19 -1.05,-0.1 -1.56,-0.82 -1.42,-1.85l0 -0.03 5.62 -23.06zm8.72 -1.48l-1.93 9.94c1.53,-0.33 3.02,-0.94 4.19,-2.02 1.22,-1.13 1.97,-2.52 2.3,-4.17 0.26,-1.09 0.16,-2.11 -0.73,-2.87 -0.96,-0.82 -2.55,-0.93 -3.83,-0.88z"/>
  <path class="fil1" d="M15.42 17.55c-0.07,-0.07 -0.13,-0.14 -0.18,-0.22 -0.14,-0.21 -0.23,-0.43 -0.28,-0.68l-0.01 -0.03 -0 -0.03c-0.04,-0.42 -0.06,-0.86 -0.07,-1.28 -0.02,-0.53 -0.02,-1.06 -0.02,-1.59 0,-0.54 0.01,-1.08 0.02,-1.62 0.01,-0.46 0.06,-0.96 0.19,-1.4 0.1,-0.44 0.37,-0.8 0.72,-1.08 0.29,-0.22 0.61,-0.41 0.97,-0.55 2.09,-0.7 4.26,-1.16 6.45,-1.41 2.14,-0.25 4.29,-0.3 6.44,-0.15 2.25,0.16 4.47,0.79 6.15,2.36 1.49,1.39 2.45,3.08 2.86,5.08 0.43,2.11 0.25,4.24 -0.32,6.3 -0.63,2.31 -1.77,4.38 -3.29,6.22 -1.69,2.04 -3.8,3.62 -6.13,4.85 -2.58,1.37 -5.44,2.02 -8.34,2.21l-1.3 6.84c-0.1,0.44 -0.35,0.81 -0.71,1.08 -0.35,0.26 -0.75,0.41 -1.22,0.41 -1.02,-0.06 -2.04,-0.13 -3.05,-0.19 -1.02,-0.06 -2.04,-0.13 -3.07,-0.19 -1.05,-0.1 -1.56,-0.82 -1.42,-1.85l0 -0.03 5.62 -23.06zm8.72 -1.48l-1.93 9.94c1.53,-0.33 3.02,-0.94 4.19,-2.02 1.22,-1.13 1.97,-2.52 2.3,-4.17 0.26,-1.09 0.16,-2.11 -0.73,-2.87 -0.96,-0.82 -2.55,-0.93 -3.83,-0.88z"/>
  <path class="fil2" d="M20.14 40.37c-0.06,0.29 -0.22,0.52 -0.48,0.72 -0.25,0.19 -0.53,0.29 -0.81,0.29 -1.02,-0.06 -2.04,-0.13 -3.05,-0.19 -1.02,-0.06 -2.04,-0.13 -3.05,-0.19 -0.67,-0.06 -0.95,-0.45 -0.86,-1.15l5.73 -23.48c-0.16,-0.03 -0.29,-0.12 -0.38,-0.26 -0.1,-0.14 -0.16,-0.29 -0.19,-0.45 -0.03,-0.32 -0.06,-0.73 -0.07,-1.24 -0.02,-0.51 -0.02,-1.03 -0.02,-1.57 0,-0.54 0.01,-1.07 0.02,-1.6 0.02,-0.52 0.07,-0.95 0.17,-1.26 0.06,-0.29 0.23,-0.53 0.5,-0.74 0.27,-0.21 0.53,-0.36 0.79,-0.45 2,-0.67 4.11,-1.13 6.32,-1.38 2.21,-0.25 4.32,-0.3 6.32,-0.14 2.45,0.16 4.37,0.89 5.77,2.2 1.4,1.3 2.29,2.89 2.67,4.75 0.38,1.86 0.28,3.87 -0.31,6.01 -0.59,2.15 -1.65,4.14 -3.17,5.99 -1.53,1.85 -3.51,3.41 -5.94,4.7 -2.43,1.29 -5.29,2.01 -8.57,2.17l-1.38 7.3zm10.64 -21.28c0.35,-1.49 0.04,-2.66 -0.93,-3.48 -0.97,-0.83 -2.55,-1.16 -4.75,-1l-2.2 11.31c2.29,-0.35 4.09,-1.13 5.39,-2.34 1.3,-1.21 2.13,-2.7 2.48,-4.49z"/>
 </g>
</svg>
