<?xml version="1.0" encoding="UTF-8"?>
<!DOCTYPE svg PUBLIC "-//W3C//DTD SVG 1.1//EN" "http://www.w3.org/Graphics/SVG/1.1/DTD/svg11.dtd">
<!-- Creator: CorelDRAW 2020 (64 Bit) -->
<svg xmlns="http://www.w3.org/2000/svg" xml:space="preserve" width="67.5455mm" height="17.8622mm" version="1.1" style="shape-rendering:geometricPrecision; text-rendering:geometricPrecision; image-rendering:optimizeQuality; fill-rule:evenodd; clip-rule:evenodd"
viewBox="0 0 1017.15 268.98"
 xmlns:xlink="http://www.w3.org/1999/xlink"
 xmlns:xodm="http://www.corel.com/coreldraw/odm/2003">
 <defs>
  <style type="text/css">
   <![CDATA[
    .fil2 {fill:#FEFEFE}
    .fil1 {fill:#282829}
    .fil0 {fill:#201E1E}
   ]]>
  </style>
 </defs>
 <g id="__x0023_Layer_x0020_1">
  <metadata id="CorelCorpID_0Corel-Layer"/>
  <g id="_2093755898240">
   <path class="fil0" d="M59.92 258.44c-0.46,2.07 -1.61,3.8 -3.46,5.18 -1.84,1.38 -3.8,2.07 -5.88,2.08 -7.37,-0.46 -14.75,-0.92 -22.12,-1.38 -7.37,-0.46 -14.75,-0.92 -22.12,-1.38 -4.84,-0.46 -6.91,-3.23 -6.22,-8.3l41.47 -170.04c-1.15,-0.23 -2.07,-0.86 -2.76,-1.9 -0.69,-1.04 -1.15,-2.13 -1.38,-3.29 -0.23,-2.3 -0.4,-5.3 -0.52,-8.99 -0.12,-3.68 -0.17,-7.49 -0.17,-11.41 0,-3.92 0.06,-7.78 0.17,-11.58 0.11,-3.8 0.52,-6.85 1.21,-9.16 0.46,-2.07 1.67,-3.86 3.63,-5.36 1.96,-1.5 3.86,-2.59 5.7,-3.28 14.52,-4.84 29.78,-8.18 45.8,-10.02 16.01,-1.84 31.28,-2.19 45.79,-1.04 17.74,1.15 31.68,6.45 41.82,15.9 10.14,9.45 16.59,20.91 19.36,34.39 2.76,13.48 2.01,28 -2.25,43.55 -4.26,15.55 -11.92,30.01 -22.98,43.38 -11.06,13.36 -25.4,24.71 -43.03,34.04 -17.63,9.33 -38.3,14.57 -62.04,15.73l-10.02 52.88zm77.07 -154.14c2.53,-10.83 0.29,-19.24 -6.74,-25.23 -7.03,-5.99 -18.49,-8.41 -34.39,-7.26l-15.9 81.91c16.59,-2.53 29.61,-8.18 39.05,-16.94 9.45,-8.76 15.44,-19.59 17.97,-32.49zm58.06 164.51c-3.23,0.46 -5.65,0 -7.26,-1.38 -1.61,-1.38 -2.07,-3.46 -1.38,-6.22l43.2 -177.3c-1.15,-0.92 -1.96,-2.42 -2.42,-4.49 -0.23,-2.3 -0.4,-5.3 -0.52,-8.99 -0.11,-3.69 -0.17,-7.49 -0.17,-11.41 0,-3.92 0.06,-7.78 0.17,-11.58 0.12,-3.8 0.52,-6.85 1.21,-9.16 0.46,-2.07 1.67,-3.86 3.63,-5.36 1.96,-1.5 3.86,-2.59 5.7,-3.28 14.52,-4.84 29.43,-8.18 44.76,-10.02 15.32,-1.84 30.24,-2.19 44.76,-1.04 14.28,0.92 26.09,4.55 35.43,10.89 9.33,6.34 16.3,14.23 20.91,23.68 4.61,9.44 6.86,20.04 6.74,31.79 -0.12,11.75 -2.48,23.5 -7.09,35.25 -4.61,11.75 -11.4,22.98 -20.39,33.7 -8.99,10.71 -20.04,19.99 -33.18,27.82 8.52,6.22 16.13,13.48 22.81,21.77 6.68,8.3 12.21,17.51 16.59,27.65 0.69,1.61 1.32,3.51 1.9,5.7 0.58,2.19 -0.4,3.86 -2.94,5.01l-42.86 21.43c-2.76,1.38 -4.95,2.07 -6.57,2.07 -2.31,0 -3.92,-1.03 -4.84,-3.11 -3.23,-6.22 -6.51,-12.73 -9.85,-19.53 -3.34,-6.8 -6.91,-13.08 -10.71,-18.84 -3.8,-5.76 -8.01,-10.77 -12.61,-15.03 -4.61,-4.26 -10.02,-6.85 -16.24,-7.78 -1.15,0.23 -2.88,0.35 -5.18,0.35l-10.71 54.95c-0.46,2.07 -1.56,3.68 -3.28,4.84 -1.73,1.15 -3.75,1.84 -6.05,2.07l-43.55 5.53zm129.6 -164.51c2.53,-11.06 0.29,-19.59 -6.74,-25.57 -7.03,-5.99 -18.61,-8.3 -34.73,-6.91l-15.55 81.91c16.59,-2.53 29.55,-8.18 38.88,-16.94 9.33,-8.76 15.38,-19.58 18.14,-32.49zm275.11 38.71c-2.77,13.59 -7.2,27.94 -13.31,43.03 -6.1,15.09 -14.4,28.86 -24.88,41.3 -10.48,12.44 -23.56,22.58 -39.23,30.41 -15.67,7.83 -34.56,11.18 -56.68,10.02 -15.67,-0.92 -28.63,-5.19 -38.88,-12.79 -10.25,-7.6 -17.97,-17.34 -23.16,-29.2 -5.18,-11.87 -8.01,-25.23 -8.47,-40.09 -0.46,-14.86 1.33,-29.89 5.36,-45.1 4.03,-15.21 10.14,-30.07 18.32,-44.58 8.18,-14.52 18.2,-27.3 30.07,-38.36 11.87,-11.06 25.52,-19.76 40.96,-26.09 15.44,-6.34 32.37,-9.16 50.8,-8.47 15.21,0.69 27.36,4.9 36.46,12.61 9.1,7.72 15.78,17.34 20.04,28.86 4.26,11.52 6.45,24.25 6.57,38.19 0.11,13.94 -1.21,27.36 -3.97,40.26zm-117.85 71.2c7.6,0.69 14.34,-1.15 20.22,-5.53 5.87,-4.38 10.94,-10.08 15.21,-17.11 4.26,-7.03 7.78,-14.8 10.54,-23.33 2.76,-8.52 4.95,-16.59 6.57,-24.19 1.61,-7.37 2.71,-14.92 3.28,-22.64 0.58,-7.72 0.34,-14.8 -0.69,-21.26 -1.04,-6.45 -2.94,-11.87 -5.7,-16.24 -2.77,-4.38 -6.8,-6.8 -12.1,-7.26 -8.52,-0.69 -16.36,2.19 -23.5,8.64 -7.14,6.45 -13.3,14.69 -18.49,24.71 -5.18,10.02 -9.22,20.96 -12.1,32.83 -2.88,11.87 -4.26,22.98 -4.15,33.35 0.11,10.37 1.84,19.12 5.18,26.26 3.34,7.15 8.58,11.06 15.73,11.75zm165.2 51.15c-4.61,0.46 -9.22,0.69 -13.82,0.69 -4.61,0 -9.33,-0.11 -14.17,-0.34 -2.76,-0.23 -5.47,-0.35 -8.12,-0.35 -2.65,0 -5.47,-0.11 -8.47,-0.34 -2.07,-0.23 -3.8,-1.32 -5.18,-3.28 -1.38,-1.96 -1.84,-3.97 -1.38,-6.05l47.35 -193.54c-0.23,-3.68 -0.29,-7.37 -0.17,-11.06 0.12,-3.69 0.4,-6.8 0.86,-9.33 0.46,-2.07 1.67,-3.92 3.63,-5.53 1.96,-1.61 3.86,-2.65 5.7,-3.11 9.68,-3.23 19.64,-5.76 29.89,-7.6 10.25,-1.84 20.56,-2.76 30.93,-2.76 14.52,0 28.28,2.19 41.3,6.57 13.02,4.38 23.5,11.75 31.45,22.12 7.95,10.37 12.61,23.96 14,40.78 1.38,16.82 -2.19,37.67 -10.71,62.55 -4.61,13.83 -11.12,27.02 -19.53,39.57 -8.41,12.56 -18.55,23.79 -30.41,33.7 -11.86,9.91 -25.4,18.09 -40.61,24.54 -15.21,6.45 -31.8,10.6 -49.77,12.44 -0.46,-0 -0.81,0.06 -1.04,0.17 -0.23,0.11 -0.58,0.17 -1.04,0.17l-0.69 0zm86.75 -116.82c6.68,-26.5 6.91,-45.68 0.69,-57.54 -6.22,-11.87 -20.62,-16.88 -43.2,-15.03l-26.61 138.59c9.22,-1.84 17.68,-4.95 25.4,-9.33 7.72,-4.38 14.52,-9.56 20.39,-15.55 5.87,-5.99 10.77,-12.56 14.69,-19.7 3.92,-7.14 6.79,-14.28 8.64,-21.43zm235.71 43.2c-3.23,11.75 -8.35,22.18 -15.38,31.28 -7.03,9.1 -15.32,16.76 -24.88,22.98 -9.56,6.22 -20.05,10.83 -31.45,13.83 -11.4,2.99 -22.98,4.26 -34.73,3.8 -9.91,-0.46 -19.47,-2.42 -28.69,-5.87 -9.22,-3.46 -17.05,-8.35 -23.5,-14.69 -6.45,-6.34 -11.12,-14.11 -14,-23.33 -2.88,-9.22 -3.05,-19.82 -0.52,-31.8 0.69,-3.23 1.61,-5.47 2.76,-6.74 1.15,-1.27 2.76,-2.02 4.84,-2.25l45.62 -6.57c3.92,-0.69 5.76,1.38 5.53,6.22 -0.92,11.06 1.44,19.36 7.09,24.88 5.65,5.53 11.81,8.29 18.49,8.29 5.07,0 9.85,-1.56 14.34,-4.66 4.49,-3.11 7.66,-7.78 9.51,-14 2.53,-7.6 2.07,-13.83 -1.38,-18.66 -3.46,-4.84 -8.24,-9.27 -14.34,-13.31 -6.11,-4.03 -13.02,-8.06 -20.74,-12.1 -7.72,-4.03 -14.63,-8.81 -20.74,-14.34 -6.11,-5.53 -10.77,-12.38 -14,-20.56 -3.22,-8.18 -3.57,-18.38 -1.04,-30.59 2.53,-11.29 6.68,-21.08 12.44,-29.38 5.76,-8.29 12.73,-15.15 20.91,-20.56 8.18,-5.41 17.28,-9.39 27.3,-11.92 10.02,-2.53 20.45,-3.8 31.28,-3.8 8.75,0 16.42,0.81 22.98,2.42 6.57,1.61 12.38,3.97 17.45,7.08 5.07,3.11 9.51,6.97 13.31,11.58 3.8,4.61 7.43,10.02 10.88,16.24 0.46,0.92 0.69,2.07 0.69,3.46 0,1.38 -0.58,2.42 -1.73,3.11 -6.68,4.61 -13.6,9.1 -20.74,13.48 -7.14,4.38 -14.4,8.18 -21.77,11.41 -1.38,0.69 -2.88,0.86 -4.49,0.52 -1.61,-0.34 -2.65,-1.09 -3.11,-2.25 -2.53,-7.14 -6.11,-12.38 -10.71,-15.72 -4.61,-3.34 -9.21,-5.01 -13.82,-5.01 -4.61,0 -8.76,1.5 -12.44,4.49 -3.69,3 -6.1,7.37 -7.26,13.13 -1.15,5.76 0.4,10.6 4.67,14.52 4.26,3.92 9.79,7.66 16.59,11.23 6.8,3.57 14.17,7.43 22.12,11.58 7.95,4.15 14.97,9.33 21.08,15.55 6.11,6.22 10.48,13.88 13.13,22.98 2.65,9.1 2.13,20.45 -1.55,34.04z"/>
   <path class="fil1" d="M57.08 74.88c-0.38,-0.4 -0.72,-0.85 -1.04,-1.32 -1.08,-1.61 -1.83,-3.4 -2.22,-5.3l-0.05 -0.27 -0.03 -0.27c-0.31,-3.1 -0.45,-6.25 -0.55,-9.37 -0.12,-3.86 -0.18,-7.72 -0.17,-11.58 -0,-3.92 0.05,-7.83 0.17,-11.75 0.1,-3.43 0.42,-7.11 1.39,-10.42 0.82,-3.45 2.86,-6.25 5.66,-8.4 2.18,-1.67 4.56,-3.11 7.14,-4.08l0.1 -0.03 0.1 -0.03c15.24,-5.08 30.98,-8.44 46.93,-10.28 15.55,-1.79 31.22,-2.18 46.84,-1.06 16.58,1.18 32.85,5.84 45.25,17.4 10.96,10.21 18.03,22.71 21.03,37.37 3.16,15.43 1.8,31.06 -2.34,46.17 -4.62,16.88 -12.94,32.02 -24.07,45.47 -12.3,14.86 -27.74,26.44 -44.74,35.43 -18.59,9.84 -39.1,14.63 -59.96,16.11l-9.22 48.65 -0.02 0.09c-0.78,3.47 -2.73,6.33 -5.57,8.46 -2.72,2.04 -5.85,3.2 -9.25,3.2l-0.17 -0 -0.18 -0.01c-7.37,-0.46 -14.75,-0.92 -22.12,-1.38 -7.37,-0.46 -14.74,-0.92 -22.12,-1.38l-0.09 -0 -0.09 -0.01c-8.23,-0.78 -12.36,-6.6 -11.26,-14.66l0.04 -0.29 40.6 -166.45zm228.65 119.64c-0.17,0.02 -0.34,0.04 -0.51,0.06l-9.88 50.68 -0.02 0.07c-0.77,3.47 -2.7,6.33 -5.66,8.3 -2.57,1.72 -5.47,2.67 -8.53,2.98l-43.4 5.51c-4.13,0.59 -8.43,0.13 -11.72,-2.68 -3.54,-3.04 -4.26,-7.45 -3.19,-11.83l42.54 -174.6c-0.85,-1.41 -1.42,-3.01 -1.79,-4.65l-0.07 -0.33 -0.03 -0.33c-0.31,-3.1 -0.45,-6.25 -0.55,-9.37 -0.12,-3.86 -0.17,-7.72 -0.17,-11.58 0,-3.92 0.06,-7.84 0.17,-11.75 0.1,-3.43 0.42,-7.11 1.39,-10.42 0.82,-3.45 2.86,-6.25 5.66,-8.4 2.18,-1.67 4.57,-3.12 7.15,-4.08l0.1 -0.04 0.1 -0.03c14.91,-4.97 30.26,-8.4 45.87,-10.27 15.22,-1.83 30.54,-2.16 45.83,-1.06 13.44,0.96 26.91,4.19 38.19,11.85 9.79,6.65 17.61,15.21 22.8,25.86 5.25,10.75 7.43,22.4 7.31,34.32 -0.12,12.84 -2.79,25.32 -7.47,37.25 -5.06,12.91 -12.42,24.66 -21.32,35.26 -8.03,9.57 -17.41,17.75 -27.73,24.69 6.38,5.33 12.2,11.26 17.44,17.76 7.11,8.83 12.89,18.55 17.38,28.95 0.9,2.09 1.6,4.3 2.17,6.5 1.35,5.14 -1.31,9.37 -5.95,11.52l-42.78 21.39c-2.73,1.37 -5.98,2.67 -9.08,2.67 -4.44,0 -8.05,-2.26 -9.9,-6.28 -3.35,-6.46 -6.63,-12.97 -9.84,-19.51 -3.08,-6.27 -6.51,-12.38 -10.36,-18.22 -3.36,-5.1 -7.25,-9.85 -11.74,-14 -3.57,-3.3 -7.68,-5.36 -12.42,-6.2zm341.45 -62.62c-3.14,15.04 -7.84,29.76 -13.6,43.99 -6.31,15.61 -14.95,29.94 -25.8,42.82 -11.35,13.48 -25.29,23.96 -41.02,31.83 -18.38,9.19 -39.18,11.73 -59.5,10.61 -15.07,-0.83 -29.68,-4.81 -41.93,-13.89 -11.1,-8.24 -19.42,-18.8 -24.96,-31.47 -5.83,-13.34 -8.48,-27.67 -8.93,-42.17 -0.49,-15.8 1.49,-31.45 5.54,-46.72 4.26,-16.07 10.69,-31.42 18.86,-45.9 8.33,-14.79 18.72,-28.15 31.13,-39.71 12.5,-11.65 26.84,-20.7 42.66,-27.19 16.96,-6.96 34.9,-9.64 53.17,-8.89 14.49,0.6 28.64,4.42 39.87,13.95 9.96,8.45 17.15,18.94 21.69,31.19 4.75,12.85 6.8,26.44 6.91,40.1 0.12,13.92 -1.25,27.84 -4.09,41.46zm45.09 126.46c-0.82,0.26 -1.69,0.36 -2.56,0.36l-0.42 0c-4.68,0.46 -9.39,0.69 -14.1,0.69 -4.81,-0 -9.63,-0.12 -14.44,-0.35l-0.1 -0.01 -0.1 -0c-2.55,-0.21 -5.1,-0.33 -7.66,-0.33 -2.97,0 -5.93,-0.13 -8.9,-0.36l-0.09 -0.01 -0.1 -0.01c-3.84,-0.42 -6.95,-2.5 -9.16,-5.63 -2.2,-3.11 -3.11,-6.77 -2.28,-10.52l0.02 -0.12 47.15 -192.72c-0.2,-3.57 -0.24,-7.15 -0.13,-10.72 0.1,-3.38 0.34,-6.84 0.95,-10.16l0.01 -0.11 0.03 -0.11c0.78,-3.5 2.8,-6.38 5.54,-8.65 2.27,-1.86 4.83,-3.41 7.68,-4.17 9.97,-3.31 20.16,-5.89 30.5,-7.74 10.54,-1.9 21.22,-2.86 31.93,-2.85 14.69,-0 29.16,2.17 43.1,6.86 13.74,4.62 25.3,12.52 34.12,24.03 9.66,12.59 13.86,28.14 15.14,43.74 1.75,21.26 -4.21,44.84 -10.99,64.83 -4.92,14.49 -11.67,28.19 -20.18,40.9 -8.78,13.11 -19.37,24.77 -31.49,34.89 -12.66,10.57 -26.85,18.96 -42.02,25.4 -16.39,6.95 -33.71,11.05 -51.39,12.85l-0.09 0.01zm152.94 -97.26l45.47 -6.54c8.12,-1.38 12.4,4.39 12.03,12.05l-0 0.1 -0.01 0.1c-0.59,7.06 0.07,15.16 5.41,20.39 4.05,3.97 8.79,6.69 14.55,6.69 4.11,0 7.77,-1.33 11.14,-3.66 3.82,-2.64 6.02,-6.59 7.31,-10.97l0.03 -0.09 0.03 -0.09c1.47,-4.42 2.26,-9.58 -0.62,-13.61 -3.4,-4.76 -8,-8.67 -12.86,-11.88 -6.51,-4.3 -13.32,-8.19 -20.24,-11.81 -7.91,-4.13 -15.29,-9.17 -21.91,-15.16 -6.94,-6.28 -12.03,-13.97 -15.46,-22.67 -4.22,-10.72 -3.69,-22.76 -1.31,-33.84 2.43,-11.26 6.74,-21.92 13.33,-31.4 6.07,-8.74 13.55,-16.17 22.42,-22.04 8.91,-5.9 18.68,-10.07 29.03,-12.69 10.69,-2.7 21.64,-3.97 32.66,-3.97 8.11,0 16.43,0.64 24.33,2.58 6.69,1.64 13.17,4.14 19.06,7.75 5.6,3.43 10.52,7.73 14.7,12.8 4.37,5.29 8.14,11.1 11.47,17.09l0.06 0.1 0.06 0.11c0.93,1.86 1.28,3.91 1.28,5.97 0,3.27 -1.52,6.09 -4.28,7.83 -6.84,4.71 -13.8,9.23 -20.88,13.56 -7.17,4.4 -14.63,8.34 -22.34,11.71 -2.53,1.22 -5.29,1.51 -8.05,0.92 -3.21,-0.69 -5.91,-2.54 -7.16,-5.66l-0.04 -0.1 -0.03 -0.11c-1.74,-4.9 -4.42,-9.93 -8.72,-13.05 -3.08,-2.23 -6.64,-3.94 -10.52,-3.94 -3.38,0 -6.26,1.11 -8.89,3.24 -3.04,2.47 -4.54,6.12 -5.3,9.87 -0.75,3.78 0.11,6.65 2.96,9.27 4.51,4.15 9.99,7.55 15.4,10.4 7.36,3.87 14.73,7.72 22.1,11.57 8.34,4.35 15.91,9.89 22.5,16.6 7.01,7.14 11.73,15.77 14.52,25.35 3.48,11.94 1.69,25.3 -1.52,37.1 -3.3,12.09 -8.69,23.31 -16.36,33.24 -7.37,9.55 -16.16,17.69 -26.27,24.26 -10.2,6.63 -21.32,11.46 -33.09,14.55 -11.88,3.12 -24.13,4.51 -36.4,3.98 -10.45,-0.45 -20.64,-2.56 -30.42,-6.23 -9.53,-3.57 -18.19,-8.79 -25.48,-15.95 -7.31,-7.18 -12.36,-15.89 -15.42,-25.67 -3.51,-11.24 -3.07,-23.23 -0.65,-34.64 0.69,-3.25 1.83,-6.85 4.11,-9.36 2.18,-2.4 5.1,-3.67 8.28,-4.05zm-702.76 -96.16l-13.47 69.42c10.32,-2.44 20.27,-6.7 28.12,-13.96 8.66,-8.04 13.99,-17.85 16.27,-29.45l0.02 -0.1 0.03 -0.1c1.75,-7.48 1.19,-14.47 -4.91,-19.66 -6.45,-5.49 -17.24,-6.42 -26.05,-6.15zm187.36 -0.06l-13.2 69.49c10.27,-2.43 20.2,-6.67 27.96,-13.95 8.65,-8.11 13.95,-18.04 16.5,-29.6 1.66,-7.53 1.28,-14.81 -4.89,-20.08 -6.48,-5.52 -17.51,-6.26 -26.37,-5.87zm194.54 131.46c6.03,0.56 11.48,-0.82 16.34,-4.44 5.62,-4.19 10.13,-9.54 13.75,-15.52 4.21,-6.95 7.49,-14.42 10,-22.15 2.52,-7.76 4.69,-15.66 6.42,-23.64 1.55,-7.21 2.62,-14.52 3.17,-21.87 0.5,-6.62 0.42,-13.38 -0.64,-19.94 -0.78,-4.9 -2.23,-9.91 -4.9,-14.13 -1.86,-2.94 -4.34,-4.37 -7.8,-4.65 -7.48,-0.62 -13.75,2.23 -19.26,7.2 -7.2,6.5 -12.82,14.54 -17.26,23.12 -5.18,10 -8.97,20.64 -11.63,31.57 -2.53,10.43 -4.11,21.22 -3.99,31.97 0.09,8.04 1.22,16.59 4.66,23.94 2.29,4.9 5.62,8.01 11.15,8.53zm213.63 -127.3l-24.13 125.64c5.35,-1.64 10.52,-3.83 15.43,-6.61 7.03,-3.99 13.49,-8.83 19.15,-14.6 5.42,-5.52 10.06,-11.69 13.77,-18.47 3.49,-6.35 6.34,-13.08 8.12,-20.11 3.7,-14.59 8.58,-39.39 1.16,-53.55 -5.98,-11.4 -21.45,-12.84 -33.51,-12.31z"/>
   <path class="fil2" d="M81.81 246.18c-0.46,2.07 -1.61,3.8 -3.46,5.18 -1.84,1.38 -3.8,2.07 -5.88,2.07 -7.37,-0.46 -14.75,-0.92 -22.12,-1.38 -7.37,-0.46 -14.75,-0.92 -22.12,-1.38 -4.84,-0.46 -6.91,-3.23 -6.22,-8.29l41.47 -170.04c-1.15,-0.23 -2.07,-0.86 -2.76,-1.9 -0.69,-1.04 -1.15,-2.13 -1.38,-3.28 -0.23,-2.3 -0.4,-5.3 -0.52,-8.99 -0.12,-3.69 -0.17,-7.49 -0.17,-11.41 -0,-3.92 0.06,-7.77 0.17,-11.58 0.11,-3.8 0.52,-6.85 1.21,-9.16 0.46,-2.08 1.67,-3.86 3.63,-5.36 1.96,-1.5 3.86,-2.59 5.7,-3.28 14.52,-4.84 29.78,-8.18 45.8,-10.02 16.01,-1.84 31.28,-2.19 45.79,-1.04 17.74,1.15 31.68,6.45 41.82,15.9 10.14,9.45 16.59,20.91 19.36,34.39 2.76,13.48 2.01,27.99 -2.25,43.55 -4.26,15.55 -11.92,30.01 -22.98,43.38 -11.06,13.36 -25.4,24.71 -43.03,34.04 -17.63,9.33 -38.31,14.57 -62.04,15.73l-10.02 52.88zm77.07 -154.14c2.54,-10.83 0.29,-19.24 -6.74,-25.23 -7.03,-5.99 -18.49,-8.41 -34.39,-7.26l-15.9 81.91c16.59,-2.53 29.61,-8.18 39.05,-16.94 9.44,-8.76 15.44,-19.59 17.97,-32.49zm58.06 164.51c-3.23,0.46 -5.65,0 -7.26,-1.38 -1.61,-1.38 -2.07,-3.45 -1.38,-6.22l43.2 -177.3c-1.15,-0.92 -1.96,-2.42 -2.42,-4.5 -0.23,-2.3 -0.4,-5.3 -0.52,-8.99 -0.12,-3.68 -0.17,-7.49 -0.17,-11.4 0,-3.92 0.06,-7.78 0.17,-11.58 0.12,-3.8 0.52,-6.85 1.21,-9.16 0.46,-2.07 1.67,-3.86 3.63,-5.36 1.96,-1.5 3.86,-2.59 5.7,-3.28 14.52,-4.84 29.43,-8.18 44.76,-10.02 15.32,-1.84 30.24,-2.19 44.76,-1.04 14.28,0.92 26.09,4.55 35.42,10.89 9.33,6.34 16.3,14.23 20.91,23.68 4.61,9.45 6.85,20.04 6.74,31.8 -0.11,11.75 -2.47,23.5 -7.08,35.25 -4.61,11.75 -11.41,22.99 -20.39,33.7 -8.99,10.72 -20.04,19.99 -33.18,27.82 8.52,6.22 16.13,13.48 22.81,21.77 6.68,8.29 12.21,17.51 16.59,27.65 0.69,1.61 1.32,3.51 1.9,5.7 0.58,2.19 -0.4,3.86 -2.94,5.01l-42.85 21.43c-2.77,1.38 -4.95,2.08 -6.57,2.08 -2.3,0 -3.92,-1.04 -4.84,-3.11 -3.23,-6.22 -6.51,-12.73 -9.85,-19.53 -3.34,-6.8 -6.91,-13.08 -10.71,-18.84 -3.8,-5.76 -8.01,-10.77 -12.62,-15.03 -4.61,-4.26 -10.02,-6.85 -16.24,-7.78 -1.15,0.23 -2.88,0.34 -5.18,0.34l-10.72 54.95c-0.46,2.07 -1.55,3.68 -3.28,4.84 -1.73,1.15 -3.75,1.84 -6.05,2.07l-43.55 5.53zm129.61 -164.51c2.53,-11.06 0.29,-19.59 -6.74,-25.58 -7.03,-5.99 -18.61,-8.3 -34.73,-6.91l-15.55 81.91c16.59,-2.53 29.55,-8.18 38.88,-16.94 9.33,-8.76 15.38,-19.59 18.14,-32.49zm275.11 38.71c-2.77,13.59 -7.2,27.94 -13.31,43.03 -6.1,15.09 -14.4,28.86 -24.88,41.3 -10.48,12.44 -23.56,22.58 -39.23,30.41 -15.67,7.83 -34.56,11.18 -56.68,10.02 -15.67,-0.92 -28.63,-5.18 -38.88,-12.79 -10.25,-7.6 -17.97,-17.34 -23.15,-29.2 -5.18,-11.87 -8.01,-25.23 -8.47,-40.09 -0.46,-14.86 1.33,-29.89 5.36,-45.1 4.03,-15.2 10.14,-30.07 18.32,-44.58 8.18,-14.52 18.2,-27.3 30.07,-38.36 11.87,-11.06 25.52,-19.76 40.95,-26.09 15.44,-6.34 32.37,-9.16 50.81,-8.47 15.21,0.69 27.36,4.9 36.46,12.62 9.1,7.72 15.78,17.34 20.04,28.86 4.26,11.52 6.45,24.25 6.57,38.19 0.11,13.94 -1.21,27.36 -3.97,40.27zm-117.85 71.2c7.6,0.69 14.34,-1.15 20.22,-5.53 5.88,-4.38 10.94,-10.08 15.21,-17.11 4.26,-7.03 7.77,-14.8 10.54,-23.33 2.76,-8.52 4.95,-16.59 6.57,-24.19 1.61,-7.37 2.71,-14.92 3.29,-22.64 0.57,-7.72 0.34,-14.8 -0.69,-21.25 -1.04,-6.45 -2.94,-11.87 -5.7,-16.24 -2.76,-4.38 -6.8,-6.8 -12.1,-7.26 -8.53,-0.69 -16.36,2.19 -23.5,8.64 -7.14,6.45 -13.31,14.69 -18.49,24.71 -5.18,10.02 -9.22,20.97 -12.1,32.83 -2.88,11.87 -4.26,22.98 -4.15,33.35 0.12,10.37 1.84,19.12 5.18,26.27 3.34,7.15 8.58,11.06 15.73,11.75zm165.2 51.15c-4.61,0.46 -9.22,0.69 -13.83,0.69 -4.61,0 -9.33,-0.11 -14.17,-0.34 -2.77,-0.23 -5.47,-0.35 -8.12,-0.35 -2.65,0 -5.47,-0.12 -8.47,-0.35 -2.07,-0.23 -3.8,-1.33 -5.18,-3.28 -1.38,-1.96 -1.84,-3.97 -1.38,-6.05l47.35 -193.54c-0.23,-3.69 -0.29,-7.37 -0.17,-11.06 0.11,-3.69 0.4,-6.8 0.86,-9.33 0.46,-2.07 1.67,-3.92 3.63,-5.53 1.96,-1.61 3.86,-2.65 5.7,-3.11 9.68,-3.22 19.64,-5.76 29.89,-7.6 10.26,-1.84 20.57,-2.76 30.93,-2.76 14.52,0 28.28,2.19 41.3,6.57 13.02,4.38 23.5,11.75 31.45,22.12 7.95,10.37 12.61,23.96 14,40.78 1.38,16.82 -2.19,37.67 -10.71,62.56 -4.61,13.83 -11.11,27.02 -19.53,39.57 -8.41,12.56 -18.55,23.79 -30.41,33.7 -11.86,9.91 -25.4,18.09 -40.61,24.54 -15.2,6.45 -31.8,10.6 -49.77,12.44 -0.46,-0 -0.81,0.06 -1.04,0.17 -0.23,0.12 -0.57,0.17 -1.03,0.17l-0.69 0zm86.75 -116.82c6.68,-26.5 6.91,-45.68 0.69,-57.54 -6.22,-11.87 -20.62,-16.88 -43.2,-15.04l-26.61 138.59c9.22,-1.84 17.68,-4.95 25.4,-9.33 7.72,-4.38 14.51,-9.56 20.39,-15.55 5.87,-5.99 10.77,-12.56 14.69,-19.7 3.92,-7.14 6.8,-14.28 8.64,-21.43zm235.71 43.2c-3.23,11.75 -8.35,22.18 -15.38,31.28 -7.03,9.1 -15.32,16.76 -24.88,22.98 -9.56,6.22 -20.04,10.83 -31.45,13.83 -11.4,3 -22.98,4.26 -34.73,3.8 -9.91,-0.46 -19.47,-2.42 -28.68,-5.88 -9.22,-3.46 -17.05,-8.35 -23.5,-14.69 -6.45,-6.34 -11.12,-14.11 -14,-23.33 -2.88,-9.22 -3.06,-19.82 -0.52,-31.8 0.69,-3.23 1.61,-5.47 2.76,-6.74 1.15,-1.27 2.76,-2.01 4.84,-2.25l45.62 -6.57c3.92,-0.69 5.76,1.38 5.53,6.22 -0.92,11.06 1.44,19.36 7.09,24.89 5.65,5.53 11.81,8.29 18.49,8.29 5.07,0 9.85,-1.56 14.34,-4.67 4.5,-3.11 7.66,-7.78 9.51,-14 2.53,-7.61 2.07,-13.83 -1.38,-18.67 -3.46,-4.84 -8.24,-9.27 -14.34,-13.31 -6.1,-4.03 -13.02,-8.06 -20.73,-12.1 -7.72,-4.03 -14.63,-8.81 -20.74,-14.34 -6.11,-5.53 -10.77,-12.38 -14,-20.56 -3.23,-8.18 -3.57,-18.37 -1.04,-30.59 2.54,-11.29 6.68,-21.08 12.44,-29.38 5.76,-8.29 12.73,-15.15 20.91,-20.56 8.18,-5.41 17.28,-9.39 27.3,-11.92 10.02,-2.53 20.45,-3.8 31.28,-3.8 8.76,0 16.42,0.81 22.98,2.42 6.57,1.61 12.38,3.98 17.45,7.09 5.07,3.11 9.51,6.97 13.31,11.58 3.8,4.61 7.43,10.02 10.89,16.24 0.46,0.92 0.69,2.07 0.69,3.46 -0,1.38 -0.58,2.42 -1.73,3.11 -6.68,4.61 -13.59,9.1 -20.74,13.48 -7.14,4.38 -14.4,8.18 -21.77,11.41 -1.38,0.69 -2.88,0.86 -4.49,0.52 -1.61,-0.34 -2.65,-1.1 -3.11,-2.25 -2.54,-7.14 -6.11,-12.39 -10.71,-15.73 -4.61,-3.34 -9.22,-5.01 -13.82,-5.01 -4.61,-0 -8.76,1.5 -12.44,4.49 -3.69,3 -6.11,7.37 -7.26,13.13 -1.15,5.76 0.4,10.6 4.67,14.52 4.26,3.92 9.79,7.66 16.59,11.23 6.8,3.57 14.17,7.43 22.12,11.58 7.95,4.15 14.98,9.33 21.08,15.55 6.11,6.22 10.48,13.88 13.13,22.98 2.65,9.1 2.13,20.45 -1.55,34.04z"/>
  </g>
 </g>
</svg>
